<svg width="60" height="62" viewBox="0 0 60 62" fill="none" xmlns="http://www.w3.org/2000/svg">
<g clip-path="url(#clip0_169_1612)">
<path d="M3.96594 61.9265H44.8681L45.1659 60.2754H4.26382L3.96594 61.9265Z" fill="#D52123"/>
<path d="M4.74902 57.5937H45.6511L45.949 55.9512H5.0469L4.74902 57.5937Z" fill="#D52123"/>
<path d="M5.42981 53.8413H46.3319L46.8426 50.9902H5.94045L5.42981 53.8413Z" fill="#D52123"/>
<path d="M6.26381 49.1943H47.1659L47.8808 45.2539H6.9787L6.26381 49.1943Z" fill="#D52123"/>
<path d="M15.1319 0.113281L14.834 1.76435H55.7362L56.034 0.113281H15.1319Z" fill="#D52123"/>
<path d="M14.2298 5.07517H55.1404L55.4383 3.43262H14.5277L14.2298 5.07517Z" fill="#D52123"/>
<path d="M13.3532 9.94314H54.2553L54.7745 7.10059H13.8723L13.3532 9.94314Z" fill="#D52123"/>
<path d="M12.3234 15.6279H53.234L53.9404 11.6875H13.0383L12.3234 15.6279Z" fill="#D52123"/>
<path d="M8.38296 37.4492L7.19147 44.0875H48.0936L49.2596 37.6194L8.38296 37.4492Z" fill="#D52123"/>
<path d="M12.0851 16.9902L10.7149 24.5392L51.6681 24.2839L52.9872 16.9902H12.0851Z" fill="#D52123"/>
<path d="M52.9872 25.4668H6.26379V36.8115H52.9872V25.4668Z" fill="#FFFFFE"/>
<path d="M0 22.9902V39.0498H60V22.9902H0ZM27.0979 26.3009H28.8V28.1307H27.0979V26.3009V26.3009ZM25.0979 26.3009H26.8V28.1307H25.0979V26.3009ZM19.8043 35.7307H16.4V32.003H11.7191V35.7307H8.17021V26.3009H11.7191V29.9519H16.2979V26.3009H19.8128V35.7307H19.8043ZM32.5702 33.5009C32.5702 33.5009 32.5702 35.7392 29.7532 35.7392H24.1362C24.1362 35.7392 21.4809 36.02 21.4809 33.3477V26.3009H24.6213V33.1094C24.6608 33.3401 24.7845 33.5478 24.9685 33.6925C25.1524 33.8372 25.3835 33.9084 25.617 33.8924H28.383C28.4905 33.9091 28.6003 33.9033 28.7054 33.8753C28.8106 33.8473 28.9087 33.7977 28.9936 33.7296C29.0784 33.6615 29.1482 33.5765 29.1984 33.48C29.2486 33.3835 29.2781 33.2775 29.2851 33.169V26.2753H32.5872V33.4753L32.5702 33.5009ZM46.834 35.7392H41.1064L37.0809 28.3945V35.7392H34.0426V26.3009H39.8638L43.7191 33.6626V26.3009H46.8596V35.7307L46.834 35.7392ZM51.8043 35.7392H48.4V26.3009H51.8043V35.7307V35.7392Z" fill="#242424"/>
</g>
<defs>
<clipPath id="clip0_169_1612">
<rect width="60" height="61.8128" fill="white" transform="translate(0 0.113281)"/>
</clipPath>
</defs>
</svg>
