<svg width="33" height="32" viewBox="0 0 33 32" fill="none" xmlns="http://www.w3.org/2000/svg">
	<path fill-rule="evenodd" clip-rule="evenodd" d="M14.5638 3.0906C15.1548 2.75783 15.8217 2.58301 16.5 2.58301C17.1783 2.58301 17.8452 2.75783 18.4362 3.0906C19.0273 3.42338 19.5226 3.90287 19.8744 4.48282L19.8781 4.4889L31.1819 23.3598C31.5265 23.9566 31.7087 24.6333 31.7107 25.3224C31.7126 26.0116 31.5341 26.6892 31.1928 27.2879C30.8515 27.8866 30.3595 28.3855 29.7655 28.735C29.1716 29.0845 28.4965 29.2723 27.8074 29.2799L27.7933 29.2801L5.1926 29.28C4.5035 29.2724 3.82841 29.0845 3.23447 28.735C2.64053 28.3855 2.14846 27.8866 1.8072 27.2879C1.46594 26.6892 1.28739 26.0116 1.28932 25.3224C1.29125 24.6333 1.47359 23.9567 1.8182 23.3599L1.82845 23.3422L13.1219 4.48891L14.22 5.14668L13.1256 4.48282C13.4774 3.90287 13.9727 3.42338 14.5638 3.0906ZM15.3159 5.80803C15.3154 5.80885 15.3149 5.80968 15.3144 5.81051L4.03086 24.6475C3.91255 24.8554 3.84998 25.0903 3.84931 25.3296C3.84863 25.5717 3.91137 25.8098 4.03127 26.0202C4.15117 26.2305 4.32406 26.4058 4.53274 26.5286C4.73975 26.6504 4.97482 26.7164 5.21491 26.72H27.7851C28.0252 26.7164 28.2602 26.6504 28.4673 26.5286C28.6759 26.4058 28.8488 26.2305 28.9687 26.0202C29.0886 25.8098 29.1514 25.5717 29.1507 25.3296C29.15 25.0903 29.0874 24.8554 28.9691 24.6475L17.6856 5.81051C17.6851 5.80968 17.6846 5.80885 17.6841 5.80803C17.5606 5.60538 17.3871 5.4378 17.1803 5.32135C16.9726 5.20443 16.7383 5.14301 16.5 5.14301C16.2617 5.14301 16.0274 5.20443 15.8197 5.32135C15.6129 5.4378 15.4394 5.60538 15.3159 5.80803Z" fill="#FF9141"/>
	<path fill-rule="evenodd" clip-rule="evenodd" d="M16.5 10.7202C17.2069 10.7202 17.78 11.2933 17.78 12.0002V17.3335C17.78 18.0405 17.2069 18.6135 16.5 18.6135C15.793 18.6135 15.22 18.0405 15.22 17.3335V12.0002C15.22 11.2933 15.793 10.7202 16.5 10.7202Z" fill="#FF9141"/>
	<path fill-rule="evenodd" clip-rule="evenodd" d="M15.22 22.6667C15.22 21.9598 15.793 21.3867 16.5 21.3867H16.5133C17.2202 21.3867 17.7933 21.9598 17.7933 22.6667C17.7933 23.3736 17.2202 23.9467 16.5133 23.9467H16.5C15.793 23.9467 15.22 23.3736 15.22 22.6667Z" fill="#FF9141"/>
	</svg>
	