<svg width="747" height="304" viewBox="0 0 747 304" fill="none" xmlns="http://www.w3.org/2000/svg">
<path d="M0 245.402V196.636L122.272 4.00423H164.316V71.504H139.433L62.3515 193.49V195.778H236.106V245.402H0ZM140.577 296.885V230.529L141.721 208.935V4.00423H199.782V296.885H140.577Z" fill="#E5E7EB" fill-opacity="0.5"/>
<path d="M372.064 303.32C347.466 303.225 326.301 297.171 308.568 285.158C290.931 273.145 277.345 255.746 267.811 232.96C258.372 210.174 253.701 182.764 253.796 150.73C253.796 118.792 258.515 91.5728 267.954 69.0728C277.488 46.5729 291.074 29.4596 308.711 17.733C326.444 5.911 347.562 0 372.064 0C396.566 0 417.636 5.911 435.273 17.733C453.006 29.555 466.64 46.7159 476.174 69.2159C485.707 91.6204 490.427 118.792 490.331 150.73C490.331 182.859 485.564 210.317 476.031 233.103C466.592 255.889 453.054 273.288 435.416 285.301C417.779 297.314 396.661 303.32 372.064 303.32ZM372.064 251.98C388.843 251.98 402.238 243.543 412.249 226.668C422.26 209.793 427.217 184.48 427.122 150.73C427.122 128.516 424.834 110.021 420.257 95.2433C415.777 80.4658 409.389 69.3589 401.094 61.9224C392.895 54.486 383.218 50.7678 372.064 50.7678C355.38 50.7678 342.032 59.11 332.022 75.7942C322.011 92.4785 316.958 117.457 316.863 150.73C316.863 173.23 319.103 192.012 323.584 207.076C328.16 222.044 334.596 233.294 342.89 240.825C351.185 248.262 360.909 251.98 372.064 251.98Z" fill="#E5E7EB" fill-opacity="0.5"/>
<path d="M509.916 245.402V196.636L632.188 4.00423H674.232V71.504H649.349L572.268 193.49V195.778H746.022V245.402H509.916ZM650.493 296.885V230.529L651.637 208.935V4.00423H709.698V296.885H650.493Z" fill="#E5E7EB" fill-opacity="0.5"/>
</svg>
