<svg width="20" height="20" viewBox="0 0 20 20" fill="#0d1933" xmlns="http://www.w3.org/2000/svg">
<g clip-path="url(#clip0_4_1331)">
<path fill-rule="evenodd" clip-rule="evenodd" d="M9.16668 8.30001C8.68803 8.30001 8.30001 8.68803 8.30001 9.16668V16.6667C8.30001 17.1453 8.68803 17.5333 9.16668 17.5333H16.6667C17.1453 17.5333 17.5333 17.1453 17.5333 16.6667V9.16668C17.5333 8.68803 17.1453 8.30001 16.6667 8.30001H9.16668ZM6.70001 9.16668C6.70001 7.80438 7.80438 6.70001 9.16668 6.70001H16.6667C18.029 6.70001 19.1333 7.80438 19.1333 9.16668V16.6667C19.1333 18.029 18.029 19.1333 16.6667 19.1333H9.16668C7.80438 19.1333 6.70001 18.029 6.70001 16.6667V9.16668Z" fill="#000"/>
<path fill-rule="evenodd" clip-rule="evenodd" d="M3.3333 2.46664C3.10345 2.46664 2.88301 2.55795 2.72048 2.72048C2.55795 2.88301 2.46664 3.10345 2.46664 3.3333V10.8333C2.46664 11.0632 2.55795 11.2836 2.72048 11.4461C2.88301 11.6087 3.10345 11.7 3.3333 11.7H4.16664C4.60847 11.7 4.96664 12.0581 4.96664 12.5C4.96664 12.9418 4.60847 13.3 4.16664 13.3H3.3333C2.6791 13.3 2.0517 13.0401 1.58911 12.5775C1.12652 12.1149 0.866638 11.4875 0.866638 10.8333V3.3333C0.866638 2.6791 1.12652 2.0517 1.58911 1.58911C2.0517 1.12652 2.6791 0.866638 3.3333 0.866638H10.8333C11.4875 0.866638 12.1149 1.12652 12.5775 1.58911C13.0401 2.0517 13.3 2.6791 13.3 3.3333V4.16664C13.3 4.60847 12.9418 4.96664 12.5 4.96664C12.0581 4.96664 11.7 4.60847 11.7 4.16664V3.3333C11.7 3.10345 11.6087 2.88301 11.4461 2.72048C11.2836 2.55795 11.0632 2.46664 10.8333 2.46664H3.3333Z" fill="#000"/>
</g>
<defs>
<clipPath id="clip0_4_1331">
<rect width="20" height="20" fill="black"/>
</clipPath>
</defs>
</svg>
