<svg width="20" height="21" viewBox="0 0 20 21" fill="none" xmlns="http://www.w3.org/2000/svg">
<path fill-rule="evenodd" clip-rule="evenodd" d="M4.16668 3.31954C3.93682 3.31954 3.71638 3.41085 3.55385 3.57338C3.39132 3.73592 3.30001 3.95636 3.30001 4.18621V15.8529C3.30001 16.0827 3.39132 16.3032 3.55385 16.4657C3.71638 16.6282 3.93682 16.7195 4.16668 16.7195H7.50001C7.94184 16.7195 8.30001 17.0777 8.30001 17.5195C8.30001 17.9614 7.94184 18.3195 7.50001 18.3195H4.16668C3.51248 18.3195 2.88507 18.0597 2.42248 17.5971C1.95989 17.1345 1.70001 16.5071 1.70001 15.8529V4.18621C1.70001 3.53201 1.95989 2.9046 2.42248 2.44201C2.88507 1.97942 3.51248 1.71954 4.16668 1.71954H7.50001C7.94184 1.71954 8.30001 2.07772 8.30001 2.51954C8.30001 2.96137 7.94184 3.31954 7.50001 3.31954H4.16668Z" fill="white"/>
<path fill-rule="evenodd" clip-rule="evenodd" d="M12.7676 5.28717C13.0801 4.97475 13.5866 4.97475 13.899 5.28717L18.0657 9.45384C18.3781 9.76626 18.3781 10.2728 18.0657 10.5852L13.899 14.7519C13.5866 15.0643 13.0801 15.0643 12.7676 14.7519C12.4552 14.4395 12.4552 13.9329 12.7676 13.6205L16.3686 10.0195L12.7676 6.41854C12.4552 6.10612 12.4552 5.59959 12.7676 5.28717Z" fill="white"/>
<path fill-rule="evenodd" clip-rule="evenodd" d="M6.70001 10.0195C6.70001 9.57772 7.05818 9.21954 7.50001 9.21954H17.5C17.9418 9.21954 18.3 9.57772 18.3 10.0195C18.3 10.4614 17.9418 10.8195 17.5 10.8195H7.50001C7.05818 10.8195 6.70001 10.4614 6.70001 10.0195Z" fill="white"/>
</svg>
