<svg width="21" height="22" viewBox="0 0 21 22" fill="none" xmlns="http://www.w3.org/2000/svg">
<path fill-rule="evenodd" clip-rule="evenodd" d="M5.83482 3.76426C6.06657 3.36238 6.58023 3.22446 6.98212 3.45621L14.8571 7.99746C15.259 8.22922 15.3969 8.74288 15.1652 9.14477C14.9334 9.54665 14.4197 9.68457 14.0179 9.45282L6.14286 4.91157C5.74098 4.67981 5.60306 4.16615 5.83482 3.76426Z" fill="#0D1933"/>
<path fill-rule="evenodd" clip-rule="evenodd" d="M9.2068 1.75808C9.6001 1.53143 10.0461 1.41211 10.5 1.41211C10.954 1.41211 11.4 1.53143 11.7933 1.75808C11.7939 1.75842 11.7944 1.75876 11.795 1.7591L17.92 5.25909C18.3134 5.48619 18.6401 5.81273 18.8674 6.20596C19.0947 6.59918 19.2146 7.04526 19.215 7.49945V14.5003C19.2146 14.9545 19.0947 15.4014 18.8674 15.7947C18.6401 16.1879 18.3134 16.5144 17.92 16.7415L17.9168 16.7434L11.795 20.2415C11.7945 20.2418 11.7939 20.2422 11.7933 20.2425C11.4 20.4692 10.954 20.5885 10.5 20.5885C10.046 20.5885 9.60004 20.4692 9.20672 20.2425C9.20616 20.2422 9.2056 20.2418 9.20503 20.2415L3.08328 16.7434L3.08003 16.7415C2.68669 16.5144 2.35999 16.1879 2.13269 15.7947C1.9054 15.4014 1.7855 14.9554 1.78503 14.5012L1.78503 7.50031C1.7855 7.04612 1.9054 6.59918 2.13269 6.20596C2.35999 5.81273 2.68669 5.4862 3.08003 5.2591L3.08327 5.25723L9.2068 1.75808ZM10.5 3.09211C10.3403 3.09211 10.1834 3.13416 10.045 3.21403L10.0418 3.2159L3.91869 6.7148C3.78109 6.79456 3.66679 6.90899 3.58718 7.0467C3.50738 7.18476 3.46526 7.34136 3.46503 7.50082V14.4998C3.46526 14.6593 3.50738 14.8159 3.58718 14.9539C3.66679 15.0916 3.78109 15.2061 3.91869 15.2858C3.91914 15.2861 3.91959 15.2863 3.92003 15.2866L10.045 18.7866C10.1834 18.8665 10.3403 18.9085 10.5 18.9085C10.6598 18.9085 10.8167 18.8665 10.955 18.7866L10.9583 18.7847L17.08 15.2866C17.0805 15.2863 17.0809 15.2861 17.0813 15.2858C17.219 15.2061 17.3333 15.0916 17.4129 14.9539C17.4927 14.8158 17.5349 14.659 17.535 14.4995V7.50118C17.5349 7.34159 17.4927 7.18486 17.4129 7.0467C17.3333 6.90898 17.219 6.79454 17.0813 6.71478C17.0809 6.71453 17.0805 6.71428 17.08 6.71403L10.955 3.21403C10.8167 3.13416 10.6598 3.09211 10.5 3.09211Z" fill="black"/>
<path fill-rule="evenodd" clip-rule="evenodd" d="M2.13415 6.16953C2.36644 5.76796 2.88029 5.63073 3.28187 5.86303L10.5 10.0385L17.7181 5.86303C18.1197 5.63073 18.6336 5.76796 18.8659 6.16953C19.0982 6.5711 18.9609 7.08495 18.5594 7.31725L10.9206 11.736C10.6604 11.8865 10.3396 11.8865 10.0794 11.736L2.44065 7.31725C2.03908 7.08495 1.90185 6.5711 2.13415 6.16953Z" fill="black"/>
<path fill-rule="evenodd" clip-rule="evenodd" d="M10.5 10.1592C10.9639 10.1592 11.34 10.5353 11.34 10.9992V19.8192C11.34 20.2831 10.9639 20.6592 10.5 20.6592C10.0361 20.6592 9.65997 20.2831 9.65997 19.8192V10.9992C9.65997 10.5353 10.0361 10.1592 10.5 10.1592Z" fill="black"/>
</svg>
