<svg width="20" height="20" viewBox="0 0 20 20" fill="none" xmlns="http://www.w3.org/2000/svg">
<path fill-rule="evenodd" clip-rule="evenodd" d="M16.3991 3.60101C16.7115 3.91343 16.7115 4.41997 16.3991 4.73238L4.73238 16.3991C4.41997 16.7115 3.91343 16.7115 3.60101 16.3991C3.28859 16.0866 3.28859 15.5801 3.60101 15.2677L15.2677 3.60101C15.5801 3.28859 16.0866 3.28859 16.3991 3.60101Z" fill="rgba(0, 0, 0, 0.25)"/>
<path fill-rule="evenodd" clip-rule="evenodd" d="M5.41654 4.13345C4.70777 4.13345 4.1332 4.70801 4.1332 5.41678C4.1332 6.12555 4.70777 6.70011 5.41654 6.70011C6.1253 6.70011 6.69987 6.12555 6.69987 5.41678C6.69987 4.70801 6.1253 4.13345 5.41654 4.13345ZM2.5332 5.41678C2.5332 3.82436 3.82412 2.53345 5.41654 2.53345C7.00896 2.53345 8.29987 3.82436 8.29987 5.41678C8.29987 7.0092 7.00896 8.30011 5.41654 8.30011C3.82412 8.30011 2.5332 7.0092 2.5332 5.41678Z" fill="rgba(0, 0, 0, 0.25)"/>
<path fill-rule="evenodd" clip-rule="evenodd" d="M14.5835 13.3C13.8748 13.3 13.3002 13.8745 13.3002 14.5833C13.3002 15.292 13.8748 15.8666 14.5835 15.8666C15.2923 15.8666 15.8669 15.292 15.8669 14.5833C15.8669 13.8745 15.2923 13.3 14.5835 13.3ZM11.7002 14.5833C11.7002 12.9909 12.9911 11.7 14.5835 11.7C16.1759 11.7 17.4669 12.9909 17.4669 14.5833C17.4669 16.1757 16.1759 17.4666 14.5835 17.4666C12.9911 17.4666 11.7002 16.1757 11.7002 14.5833Z" fill="rgba(0, 0, 0, 0.25)"/>
</svg>