<svg width="20" height="21" viewBox="0 0 20 21" fill="none" xmlns="http://www.w3.org/2000/svg">
<path fill-rule="evenodd" clip-rule="evenodd" d="M4.16668 3.81954C3.93682 3.81954 3.71638 3.91085 3.55385 4.07338C3.39132 4.23592 3.30001 4.45636 3.30001 4.68621V16.3529C3.30001 16.5827 3.39132 16.8032 3.55385 16.9657C3.71638 17.1282 3.93682 17.2195 4.16668 17.2195H15.8333C16.0632 17.2195 16.2836 17.1282 16.4462 16.9657C16.6087 16.8032 16.7 16.5827 16.7 16.3529V7.51758L13.002 3.81954H4.16668ZM2.42248 2.94201C2.88507 2.47942 3.51248 2.21954 4.16668 2.21954H13.3333C13.5455 2.21954 13.749 2.30383 13.899 2.45386L18.0657 6.62052C18.2157 6.77055 18.3 6.97404 18.3 7.18621V16.3529C18.3 17.0071 18.0401 17.6345 17.5775 18.0971C17.115 18.5597 16.4875 18.8195 15.8333 18.8195H4.16668C3.51248 18.8195 2.88507 18.5597 2.42248 18.0971C1.95989 17.6345 1.70001 17.0071 1.70001 16.3529V4.68621C1.70001 4.03201 1.95989 3.4046 2.42248 2.94201Z" fill="white"/>
<path fill-rule="evenodd" clip-rule="evenodd" d="M5.03333 11.3529C5.03333 10.911 5.3915 10.5529 5.83333 10.5529H14.1667C14.6085 10.5529 14.9667 10.911 14.9667 11.3529V18.0195C14.9667 18.4614 14.6085 18.8195 14.1667 18.8195C13.7248 18.8195 13.3667 18.4614 13.3667 18.0195V12.1529H6.63333V18.0195C6.63333 18.4614 6.27515 18.8195 5.83333 18.8195C5.3915 18.8195 5.03333 18.4614 5.03333 18.0195V11.3529Z" fill="white"/>
<path fill-rule="evenodd" clip-rule="evenodd" d="M5.83333 2.21954C6.27515 2.21954 6.63333 2.57772 6.63333 3.01954V6.38621H12.5C12.9418 6.38621 13.3 6.74438 13.3 7.18621C13.3 7.62804 12.9418 7.98621 12.5 7.98621H5.83333C5.3915 7.98621 5.03333 7.62804 5.03333 7.18621V3.01954C5.03333 2.57772 5.3915 2.21954 5.83333 2.21954Z" fill="white"/>
</svg>
