<svg width="20" height="21" viewBox="0 0 20 21" fill="none" xmlns="http://www.w3.org/2000/svg">
<path fill-rule="evenodd" clip-rule="evenodd" d="M1.70001 5.51954C1.70001 5.07772 2.05818 4.71954 2.50001 4.71954H17.5C17.9418 4.71954 18.3 5.07772 18.3 5.51954C18.3 5.96137 17.9418 6.31954 17.5 6.31954H2.50001C2.05818 6.31954 1.70001 5.96137 1.70001 5.51954Z" fill="white"/>
<path fill-rule="evenodd" clip-rule="evenodd" d="M8.33334 2.9862C8.10348 2.9862 7.88304 3.07751 7.72051 3.24004C7.55798 3.40257 7.46667 3.62301 7.46667 3.85287V4.71953H12.5333V3.85287C12.5333 3.62301 12.442 3.40257 12.2795 3.24004C12.117 3.07751 11.8965 2.9862 11.6667 2.9862H8.33334ZM14.1333 4.71953V3.85287C14.1333 3.19867 13.8735 2.57126 13.4109 2.10867C12.9483 1.64608 12.3209 1.3862 11.6667 1.3862H8.33334C7.67914 1.3862 7.05173 1.64608 6.58914 2.10867C6.12655 2.57126 5.86667 3.19867 5.86667 3.85287V4.71953H4.16667C3.72484 4.71953 3.36667 5.07771 3.36667 5.51953V17.1862C3.36667 17.8404 3.62655 18.4678 4.08914 18.9304C4.55173 19.393 5.17913 19.6529 5.83334 19.6529H14.1667C14.8209 19.6529 15.4483 19.393 15.9109 18.9304C16.3735 18.4678 16.6333 17.8404 16.6333 17.1862V5.51953C16.6333 5.07771 16.2752 4.71953 15.8333 4.71953H14.1333ZM4.96667 6.31953V17.1862C4.96667 17.4161 5.05798 17.6365 5.22051 17.799C5.38304 17.9616 5.60348 18.0529 5.83334 18.0529H14.1667C14.3965 18.0529 14.617 17.9616 14.7795 17.799C14.942 17.6365 15.0333 17.4161 15.0333 17.1862V6.31953H4.96667Z" fill="white"/>
<path fill-rule="evenodd" clip-rule="evenodd" d="M8.33333 8.8862C8.77515 8.8862 9.13333 9.24437 9.13333 9.6862V14.6862C9.13333 15.128 8.77515 15.4862 8.33333 15.4862C7.8915 15.4862 7.53333 15.128 7.53333 14.6862V9.6862C7.53333 9.24437 7.8915 8.8862 8.33333 8.8862Z" fill="white"/>
<path fill-rule="evenodd" clip-rule="evenodd" d="M11.6667 8.8862C12.1085 8.8862 12.4667 9.24437 12.4667 9.6862V14.6862C12.4667 15.128 12.1085 15.4862 11.6667 15.4862C11.2248 15.4862 10.8667 15.128 10.8667 14.6862V9.6862C10.8667 9.24437 11.2248 8.8862 11.6667 8.8862Z" fill="white"/>
</svg>
