<svg width="20" height="20" viewBox="0 0 20 20" fill="#fff" xmlns="http://www.w3.org/2000/svg">
<path fill-rule="evenodd" clip-rule="evenodd" d="M3.74395 12.9106C4.5191 12.1355 5.57043 11.7 6.66666 11.7H13.3333C14.4296 11.7 15.4809 12.1355 16.256 12.9106C17.0312 13.6858 17.4667 14.7371 17.4667 15.8333V17.5C17.4667 17.9418 17.1085 18.3 16.6667 18.3C16.2248 18.3 15.8667 17.9418 15.8667 17.5V15.8333C15.8667 15.1615 15.5998 14.5171 15.1247 14.042C14.6496 13.5669 14.0052 13.3 13.3333 13.3H6.66666C5.99478 13.3 5.35041 13.5669 4.87532 14.042C4.40023 14.5171 4.13333 15.1615 4.13333 15.8333V17.5C4.13333 17.9418 3.77515 18.3 3.33333 18.3C2.8915 18.3 2.53333 17.9418 2.53333 17.5V15.8333C2.53333 14.7371 2.9688 13.6858 3.74395 12.9106Z" fill="white"/>
<path fill-rule="evenodd" clip-rule="evenodd" d="M9.99997 3.30001C8.60085 3.30001 7.46664 4.43422 7.46664 5.83335C7.46664 7.23247 8.60085 8.36668 9.99997 8.36668C11.3991 8.36668 12.5333 7.23247 12.5333 5.83335C12.5333 4.43422 11.3991 3.30001 9.99997 3.30001ZM5.86664 5.83335C5.86664 3.55057 7.71719 1.70001 9.99997 1.70001C12.2827 1.70001 14.1333 3.55057 14.1333 5.83335C14.1333 8.11612 12.2827 9.96668 9.99997 9.96668C7.71719 9.96668 5.86664 8.11612 5.86664 5.83335Z" fill="white"/>
</svg>
